<svg width="36" height="39" viewBox="0 0 36 39" fill="none" xmlns="http://www.w3.org/2000/svg">
<g filter="url(#filter0_d_836_671)">
<path d="M24.1665 11.3893C24.1665 10.5789 23.8446 9.80161 23.2715 9.22853C22.6984 8.65545 21.9211 8.3335 21.1107 8.3335H13.889C13.0785 8.3335 12.3013 8.65545 11.7282 9.22853C11.1551 9.80161 10.8332 10.5789 10.8332 11.3893V18.611C10.8332 19.4215 11.1551 20.1987 11.7282 20.7718C12.3013 21.3449 13.0785 21.6668 13.889 21.6668H21.1107C21.9211 21.6668 22.6984 21.3449 23.2715 20.7718C23.8446 20.1987 24.1665 19.4215 24.1665 18.611V11.3893Z" fill="white"/>
<path d="M27.5 14.1669C27.5 13.2552 27.0558 12.6435 26.2383 12.1885C26.0452 12.0811 25.8172 12.0548 25.6047 12.1155C25.3922 12.1761 25.2124 12.3187 25.105 12.5119C24.9976 12.705 24.9713 12.933 25.0319 13.1455C25.0926 13.358 25.2352 13.5378 25.4283 13.6452C25.76 13.8294 25.8333 13.9302 25.8333 14.1669V22.5002C25.8333 22.9569 25.4567 23.3335 25 23.3335H16.6683C16.4017 23.3335 16.1533 23.2052 15.9975 22.9944L15.9433 22.911C15.8892 22.8159 15.8168 22.7324 15.7304 22.6653C15.6439 22.5982 15.5451 22.5487 15.4395 22.5198C15.334 22.4908 15.2238 22.483 15.1152 22.4966C15.0066 22.5103 14.9018 22.5452 14.8067 22.5994C14.7116 22.6535 14.6281 22.7259 14.5609 22.8123C14.4938 22.8988 14.4444 22.9976 14.4154 23.1031C14.3865 23.2087 14.3786 23.3189 14.3923 23.4275C14.4059 23.5361 14.4408 23.6409 14.495 23.736C14.7132 24.1197 15.029 24.4387 15.4105 24.6608C15.7919 24.8828 16.2253 24.9999 16.6667 25.0002H25C26.3767 25.0002 27.5 23.8769 27.5 22.5002V14.1669Z" fill="white"/>
</g>
<defs>
<filter id="filter0_d_836_671" x="-8.10623e-05" y="0.000163078" width="38.3334" height="38.3332" filterUnits="userSpaceOnUse" color-interpolation-filters="sRGB">
<feFlood flood-opacity="0" result="BackgroundImageFix"/>
<feColorMatrix in="SourceAlpha" type="matrix" values="0 0 0 0 0 0 0 0 0 0 0 0 0 0 0 0 0 0 127 0" result="hardAlpha"/>
<feOffset dy="2.5"/>
<feGaussianBlur stdDeviation="5.41667"/>
<feComposite in2="hardAlpha" operator="out"/>
<feColorMatrix type="matrix" values="0 0 0 0 0 0 0 0 0 0 0 0 0 0 0 0 0 0 0.5 0"/>
<feBlend mode="normal" in2="BackgroundImageFix" result="effect1_dropShadow_836_671"/>
<feBlend mode="normal" in="SourceGraphic" in2="effect1_dropShadow_836_671" result="shape"/>
</filter>
</defs>
</svg>
